<?xml version="1.0" encoding="utf-8"?>
<!-- Generator: Adobe Illustrator 26.2.1, SVG Export Plug-In . SVG Version: 6.00 Build 0)  -->
<svg version="1.1" id="Layer_1" xmlns="http://www.w3.org/2000/svg" xmlns:xlink="http://www.w3.org/1999/xlink" x="0px" y="0px"
	 viewBox="0 0 520.7 125.1" style="enable-background:new 0 0 520.7 125.1;" xml:space="preserve">
<style type="text/css">
	.st0{fill:#FFFFFF;}
	.st1{fill:#FF0000;}
</style>
<g>
	<path class="st0" d="M130.2,81.2L130.2,81.2l-3.6,14.3l0,0l0,0l-7.3-12l0,0l-11-18l-11,18l-7.3,12l0,0l0,0l-3.6-14.2l-13-51.8h10.4
		l10,39.8l0,0l0,0l8.5-13.9l1.6-2.7l4.5-7.4l4.5,7.4l1.6,2.7l8.5,13.9l10-39.8h10.4L130.2,81.2z"/>
	<path class="st0" d="M161.1,47.3v6.1h35.8v11.8h-35.8v12.5c0,3.3,2.3,6.1,5.1,6.1h40.7v11.8h-40.7c-8.3,0-15-8-15-17.8V47.3
		c0-9.8,6.7-17.8,15-17.8h40.7v11.8h-40.7C163.4,41.2,161.1,43.9,161.1,47.3z"/>
	<path class="st1" d="M224.8,62.4c0,11.7,8,21.3,17.9,21.3h17.9V71h-17.9V59.3h27.9v36.2h-27.9c-15.4,0-27.9-14.8-27.9-33
		s12.5-33,27.9-33h27.9v11.8h-27.9C232.8,41.2,224.8,50.7,224.8,62.4z"/>
	<path class="st1" d="M334.2,29.4v33c0,18.2-12.5,33-27.9,33c-15.4,0-27.9-14.8-27.9-33v-33h9.9v33c0,11.7,8,21.3,17.9,21.3
		c9.9,0,17.9-9.5,17.9-21.3v-33H334.2z"/>
	<path class="st1" d="M399,95.4h-11.2l-5.1-11.8l-12.1-28.3l-12.1,28.3l-5.1,11.8h-11.2l5.1-11.8l23.3-54.2l23.3,54.2L399,95.4z"/>
	<path class="st1" d="M452,83.6l5.1,11.8h-11.2l-5.1-11.8l-5.3-12.4l-0.2-0.5c-1.7-3.4-4.9-5.6-8.5-5.6h-9.9v30.4h-9.9v-66H442
		c4.2,0,7.9,2,10.6,5.2c2.7,3.3,4.4,7.7,4.4,12.6c0,7.2-3.6,13.5-8.8,16.2c-1.4,0.7-2.8,1.3-4.3,1.5c0,0,0,0,0,0L452,83.6z
		 M442,53.3c0.7,0,1.4-0.2,2.1-0.5c1.9-1,3-3.1,3-5.5c0-2.2-1-3.6-1.5-4.4c-0.7-0.7-1.8-1.7-3.6-1.7h-25.2v12.2H442z"/>
	<path class="st1" d="M492.9,29.4c15.4,0,27.8,14.7,27.8,33c0,8.1-2.4,15.5-6.6,21.3c-0.5,0.7-1,1.4-1.6,2.1c-5,6-12,9.7-19.7,9.7
		H465v-66H492.9z M474.9,83.7h17.9c9.9,0,17.9-9.5,17.9-21.3c0-11.7-8-21.2-17.9-21.2h-17.9V83.7z"/>
	<path class="st1" d="M67.8,122.6c-0.9-2.7-2.8-4.9-5.3-6.2l-2.2-1.1c-0.4-0.2-0.7-0.3-1.1-0.4c0-1.1-0.1-3.2-0.7-4.1
		c-2.8-3.5-7-4.9-7.1-9.9c0-1-0.3-1.7-0.7-2.3c0.4,0,0.7,0,1.1,0c2,0,3.7-1.2,3.7-2.9c-0.1-3.2-3.6-3.2,1.3-6.2
		c3-1.8,3.9-4.6,3.9-4.6c0.8-17.2-20.4-23.8-25-38.8c8.2,7.6,11,1.9,14.6,7.6c1,1.6,1.7,4.1,4.2,3.4c8.8-0.3,6.8,4.8,11.7-7.5
		c1.7-3.7-2.9-6.2-4.2-9.3c-1.3-2.2-2.4-4.6-3.4-7c-1.7-2.9-0.6-6.3-1.8-9.3c-1.4-3-2.8-6-4.4-8.9l6.3-6C48.8-0.4,28.6-3.4,17.3,4.6
		c1.9,1.6,3,0.4,4.6,1.6C15.4,5.4,8.2,11.4,6,15.3c6.7-1.6,4.9,0.7,8.9-0.2c-3,2.2-6.6-1-10.6,3.5c-1.8,2.1-2.9,9-2.9,9
		c4.3-3.7,5.9-0.4,9.9-3.5C9.2,28.5,2,24.3,0.7,32c0,0-0.3,6.5,0.5,7.3c2.6-4.5,5.2-2.2,7.2-5.1c-0.3,4-5.6,1.9-7.1,7.3
		c-0.7,3.9,1,10.1,1,10.1c1.5-5,4.5-3,6.7-6.9C7.9,50.2,2.7,49,3.1,56.1L5.7,66c0-7.5,3.7-5,5.4-9.5c0.1,4.2-4.1,3.1-4.4,11
		c-0.1,5,2.2,11.8,3.3,12.3c0.7-6.9,0.7-6.9,2.9-9.6c0.2,0,0.2,8.6-3,15c0,0,1,2.3,3.6,4.2c4.2,3.1,0.8,3.2,1,6.5
		c0.1,2.1,1.7,2.8,4,2.8c0.1,0,0.1,0,0.2,0c-0.3,0.5-0.5,1-0.5,1.7c0,4.4-4.7,7.2-7.2,10.3c-0.8,1-0.9,3.2-0.9,4.3
		c-0.3,0.1-0.6,0.2-1,0.3l-1.8,0.9c-3.1,1.5-5.6,4.1-6.8,7.3L0,124.7c10.8,0,23.7,0,34.6,0c11.3,0,22.6,0,33.8,0L67.8,122.6z
		 M27.5,6.8c2.1,1.4,0.7,3.4,3.3,6.1C26.8,10.2,28.7,9,27.5,6.8z M57.5,84.8h-4.2C53,73.9,40.1,67.4,34.2,49.4
		C41.5,67.9,57.5,73.2,57.5,84.8z M54.3,30.5c0,0-1.6,1.4-3.4,0.6c-2.2-1-0.7-2.7-3.9-3.9C52.1,27.8,53.6,31,54.3,30.5z M37.2,12.9
		c0,0-3-5.8-10.4-6.7C33.8,6.2,39.9,11.2,37.2,12.9z M23.1,18c-0.9,0.6-2.3,7.9-1.7,9.2c-7.7,7.8-10,22.2,3.7,44.8
		C13.5,55,7.6,31.4,23.1,18z"/>
	<g>
		<path class="st0" d="M185.5,115.5v9.3h-4.9V99.5h8.6c1.4,0,2.6,0.2,3.7,0.6s2.1,1,2.8,1.7s1.4,1.6,1.8,2.6c0.4,1,0.6,2.1,0.6,3.3
			c0,1.1-0.2,2.2-0.6,3.1c-0.4,1-1,1.8-1.8,2.5c-0.8,0.7-1.7,1.2-2.8,1.6s-2.4,0.6-3.7,0.6H185.5z M185.5,111.5h3.8
			c0.7,0,1.3-0.1,1.8-0.3c0.5-0.2,0.9-0.5,1.3-0.9c0.3-0.4,0.6-0.8,0.8-1.2c0.2-0.5,0.3-1,0.3-1.5c0-0.6-0.1-1.1-0.3-1.6
			c-0.2-0.5-0.4-1-0.8-1.3c-0.3-0.4-0.8-0.7-1.3-0.9c-0.5-0.2-1.1-0.3-1.8-0.3h-3.8V111.5z"/>
		<path class="st0" d="M210.2,115.3h-3.7v9.4h-4.9V99.5h8.5c1.4,0,2.7,0.2,3.8,0.5c1.1,0.3,2.1,0.8,2.9,1.4c0.8,0.6,1.4,1.4,1.9,2.4
			c0.4,0.9,0.7,2,0.7,3.3c0,0.9-0.1,1.7-0.3,2.4c-0.2,0.7-0.5,1.4-0.9,1.9c-0.4,0.6-0.9,1.1-1.4,1.5s-1.2,0.8-1.9,1.1l5.4,10.4v0.2
			H215L210.2,115.3z M206.5,111.3h3.6c1.4,0,2.4-0.4,3.2-1.1c0.7-0.7,1.1-1.7,1.1-2.9c0-1.3-0.4-2.2-1.1-2.9
			c-0.7-0.7-1.8-1.1-3.2-1.1h-3.6V111.3z"/>
		<path class="st0" d="M224.1,99.5h14.6v3.9h-4.9v17.4h4.9v3.9h-14.6v-3.9h4.8v-17.4h-4.8V99.5z"/>
		<path class="st0" d="M252.7,117.7l4.8-18.2h5.4l-7.7,25.3h-5l-7.6-25.3h5.4L252.7,117.7z"/>
		<path class="st0" d="M278.1,119.5h-7.6l-1.5,5.3h-5.1l8.3-25.3h4.4l8.1,25.3h-5.1L278.1,119.5z M271.7,115.3h5.2l-2.6-9.3
			L271.7,115.3z"/>
		<path class="st0" d="M305.6,103.4h-7.8v21.3h-4.9v-21.3h-7.7v-4h20.4V103.4z"/>
		<path class="st0" d="M323.9,113.7h-10.4v7.1h12.1v3.9h-17V99.5h17v4h-12.1v6.4h10.4V113.7z"/>
		<path class="st0" d="M364.2,118.1c0-0.5-0.1-0.9-0.2-1.3c-0.2-0.4-0.4-0.8-0.8-1.1c-0.4-0.3-0.9-0.7-1.5-0.9
			c-0.6-0.3-1.4-0.5-2.3-0.8c-1.1-0.3-2.2-0.7-3.2-1.1c-1-0.5-1.9-1-2.6-1.6c-0.8-0.6-1.4-1.4-1.8-2.2c-0.5-0.8-0.7-1.8-0.7-2.9
			c0-1.1,0.2-2,0.7-2.9c0.5-0.9,1.1-1.6,1.9-2.2c0.8-0.6,1.7-1.1,2.8-1.4c1.1-0.3,2.3-0.5,3.5-0.5c1.3,0,2.5,0.2,3.6,0.6
			c1.1,0.4,2,0.9,2.8,1.6c0.8,0.7,1.4,1.5,1.8,2.5c0.4,0.9,0.7,2,0.7,3.1h-4.8c0-0.6-0.1-1.1-0.3-1.6s-0.4-0.9-0.8-1.2
			c-0.4-0.3-0.8-0.6-1.3-0.8s-1.1-0.3-1.8-0.3c-0.6,0-1.2,0.1-1.7,0.2c-0.5,0.2-0.9,0.4-1.3,0.7c-0.3,0.3-0.6,0.6-0.8,1
			c-0.2,0.4-0.3,0.8-0.3,1.3c0,0.5,0.1,0.9,0.4,1.3s0.6,0.7,1,1c0.5,0.3,1,0.6,1.6,0.8c0.6,0.3,1.4,0.5,2.2,0.7
			c1.2,0.3,2.2,0.7,3.2,1.2c1,0.5,1.8,1.1,2.5,1.7c0.7,0.7,1.2,1.4,1.6,2.3c0.4,0.9,0.6,1.8,0.6,2.8c0,1.1-0.2,2.1-0.7,3
			c-0.4,0.9-1.1,1.6-1.8,2.2c-0.8,0.6-1.7,1-2.8,1.4s-2.3,0.5-3.6,0.5c-0.8,0-1.6-0.1-2.4-0.2s-1.6-0.4-2.3-0.7
			c-0.7-0.3-1.4-0.7-2-1.1c-0.6-0.5-1.2-1-1.6-1.6c-0.5-0.6-0.8-1.3-1.1-2c-0.3-0.8-0.4-1.6-0.4-2.5h4.8c0,0.8,0.2,1.4,0.4,2
			c0.2,0.5,0.6,1,1,1.3c0.4,0.3,1,0.6,1.6,0.8c0.6,0.2,1.3,0.2,2,0.2c0.6,0,1.2-0.1,1.7-0.2c0.5-0.2,0.9-0.4,1.3-0.6
			c0.3-0.3,0.6-0.6,0.8-1C364.1,119,364.2,118.6,364.2,118.1z"/>
		<path class="st0" d="M387.9,113.7h-10.4v7.1h12.1v3.9h-17V99.5h17v4h-12.1v6.4h10.4V113.7z"/>
		<path class="st0" d="M411.3,116.8c-0.1,1.3-0.4,2.4-0.8,3.4s-1.1,1.9-1.9,2.6c-0.8,0.7-1.7,1.3-2.8,1.7c-1.1,0.4-2.3,0.6-3.6,0.6
			c-1.5,0-2.8-0.3-4-0.8c-1.2-0.5-2.1-1.3-2.9-2.3s-1.4-2.2-1.8-3.6s-0.6-2.9-0.6-4.6v-3.4c0-1.7,0.2-3.2,0.7-4.6
			c0.4-1.4,1.1-2.6,1.9-3.6c0.8-1,1.8-1.8,2.9-2.3c1.2-0.5,2.4-0.8,3.9-0.8c1.4,0,2.6,0.2,3.7,0.6c1.1,0.4,2,1,2.8,1.7
			c0.8,0.7,1.4,1.6,1.8,2.7c0.4,1.1,0.7,2.2,0.8,3.6h-4.9c0-0.8-0.2-1.4-0.3-2c-0.2-0.6-0.4-1-0.8-1.4s-0.8-0.7-1.3-0.9
			c-0.5-0.2-1.1-0.3-1.8-0.3c-0.8,0-1.4,0.2-2,0.5c-0.6,0.3-1,0.8-1.4,1.4c-0.4,0.6-0.6,1.4-0.8,2.3c-0.2,0.9-0.3,1.9-0.3,3.1v3.4
			c0,2.5,0.4,4.3,1.1,5.5c0.7,1.2,1.8,1.8,3.3,1.8c1.3,0,2.3-0.3,3-1s1.2-1.8,1.2-3.3H411.3z"/>
		<path class="st0" d="M431.9,99.5l0,16.8c0,1.4-0.2,2.7-0.6,3.8c-0.4,1.1-0.9,2-1.7,2.8s-1.6,1.3-2.7,1.7c-1.1,0.4-2.3,0.6-3.6,0.6
			c-1.3,0-2.4-0.2-3.4-0.6s-1.9-1-2.6-1.7c-0.7-0.8-1.3-1.7-1.7-2.8s-0.6-2.4-0.6-3.8l0-16.8h4.9l0,16.8c0,1.6,0.3,2.9,0.9,3.7
			s1.4,1.2,2.6,1.2c1.2,0,2.1-0.4,2.7-1.2s1-2.1,1-3.7l0-16.8H431.9z"/>
		<path class="st0" d="M445,115.3h-3.7v9.4h-4.9V99.5h8.5c1.4,0,2.7,0.2,3.8,0.5c1.1,0.3,2.1,0.8,2.9,1.4c0.8,0.6,1.4,1.4,1.9,2.4
			c0.4,0.9,0.7,2,0.7,3.3c0,0.9-0.1,1.7-0.3,2.4s-0.5,1.4-0.9,1.9c-0.4,0.6-0.9,1.1-1.4,1.5s-1.2,0.8-1.9,1.1l5.4,10.4v0.2h-5.2
			L445,115.3z M441.3,111.3h3.6c1.4,0,2.4-0.4,3.2-1.1c0.7-0.7,1.1-1.7,1.1-2.9c0-1.3-0.4-2.2-1.1-2.9c-0.7-0.7-1.8-1.1-3.2-1.1
			h-3.6V111.3z"/>
		<path class="st0" d="M458.8,99.5h14.6v3.9h-4.9v17.4h4.9v3.9h-14.6v-3.9h4.8v-17.4h-4.8V99.5z"/>
		<path class="st0" d="M497.7,103.4h-7.8v21.3H485v-21.3h-7.7v-4h20.4V103.4z"/>
		<path class="st0" d="M509.1,111.1l5-11.7h5.4l-8,16.5l0,8.8h-4.9l0-9l-7.8-16.3h5.3L509.1,111.1z"/>
	</g>
</g>
</svg>
